# xmcd CD database file
#
# Track frame offsets:
#	150
#	6883
#	24033
#	40208
#	51330
#	66115
#	96558
#	118900
#	129435
#	143783
#	156968
#	171008
#
# Disc length: 2637 seconds
#
# Revision: 1
# Processed by: cddbd v1.5.1PL0 Copyright (c) Steve Scherf et al.
# Submitted via: CDex 1.60beta1
#
DISCID=a10a4b0c
DTITLE=BC Lemons - Spaceball Children's Space Love
DYEAR=1991
DGENRE=Rock
TTITLE0=Introduction - Space Love
TTITLE1=20世紀の飛行機
TTITLE2=シュールミュージカル
TTITLE3=Chance of Love
TTITLE4=Theme of BC Lemons
TTITLE5=スターコースト
TTITLE6=ラフ・ファンタジィ
TTITLE7=人間ネコマニア
TTITLE8=たそがれのOcean
TTITLE9=ペルシャンスカイ
TTITLE10=グラマーラブ
TTITLE11=Space Love
EXTD=YEAR: 1991
EXTT0=
EXTT1=
EXTT2=
EXTT3=
EXTT4=
EXTT5=
EXTT6=
EXTT7=
EXTT8=
EXTT9=
EXTT10=
EXTT11=
PLAYORDER=
